<?xml version="1.0" standalone="no"?>
<!DOCTYPE svg PUBLIC "-//W3C//DTD SVG 20010904//EN"
 "http://www.w3.org/TR/2001/REC-SVG-20010904/DTD/svg10.dtd">
<svg version="1.0" xmlns="http://www.w3.org/2000/svg"
 width="1024.000000pt" height="1024.000000pt" viewBox="0 0 1024.000000 1024.000000"
 preserveAspectRatio="xMidYMid meet">
<metadata>
Created by potrace 1.16, written by Peter Selinger 2001-2019
</metadata>
<g transform="translate(0.000000,1024.000000) scale(0.100000,-0.100000)"
fill="#000000" stroke="none">
<path d="M0 5120 l0 -5120 5120 0 5120 0 0 5120 0 5120 -5120 0 -5120 0 0
-5120z m6170 1534 l250 -259 0 -272 0 -273 -380 0 -380 0 0 170 0 170 -540 0
-540 0 0 -258 0 -258 108 -31 c59 -17 328 -94 597 -171 270 -77 526 -150 571
-162 l81 -21 241 -243 242 -242 0 -489 -1 -490 -252 -258 -252 -257 -793 0
-793 0 -254 258 -254 257 -1 298 0 297 380 0 380 0 0 -190 0 -190 540 0 540 0
-2 266 -3 266 -275 79 c-622 180 -997 287 -1030 294 -28 6 -82 53 -282 253
l-248 246 0 479 0 479 253 259 252 258 797 -2 797 -3 251 -260z m3535 -5912
c25 -60 97 -132 157 -157 27 -11 48 -23 48 -26 0 -4 -21 -14 -47 -24 -60 -23
-133 -96 -158 -157 -11 -27 -23 -48 -26 -48 -4 0 -14 21 -24 47 -23 60 -96
133 -157 158 -27 11 -48 23 -48 26 0 4 21 14 47 24 60 23 133 96 158 157 11
27 22 48 25 48 3 0 14 -21 25 -48z"/>
</g>
</svg>
